<?xml version="1.0" standalone="no"?>
<!DOCTYPE svg PUBLIC "-//W3C//DTD SVG 20010904//EN"
 "http://www.w3.org/TR/2001/REC-SVG-20010904/DTD/svg10.dtd">
<svg version="1.0" xmlns="http://www.w3.org/2000/svg"
 width="96.000000pt" height="96.000000pt" viewBox="0 0 96.000000 96.000000"
 preserveAspectRatio="xMidYMid meet">
<metadata>
Created by potrace 1.11, written by Peter Selinger 2001-2013
</metadata>
<g transform="translate(0.000000,96.000000) scale(0.100000,-0.100000)"
fill="#000000" stroke="none">
<path d="M87 853 c-4 -3 -7 -26 -7 -50 l0 -43 341 0 340 0 -3 48 -3 47 -331 3
c-182 1 -333 -1 -337 -5z"/>
<path d="M220 640 c0 -13 7 -20 20 -20 13 0 20 7 20 20 0 13 -7 20 -20 20 -13
0 -20 -7 -20 -20z"/>
<path d="M300 640 c0 -19 7 -20 160 -20 153 0 160 1 160 20 0 19 -7 20 -160
20 -153 0 -160 -1 -160 -20z"/>
<path d="M220 560 c0 -13 7 -20 20 -20 13 0 20 7 20 20 0 13 -7 20 -20 20 -13
0 -20 -7 -20 -20z"/>
<path d="M300 560 c0 -19 7 -20 160 -20 153 0 160 1 160 20 0 19 -7 20 -160
20 -153 0 -160 -1 -160 -20z"/>
<path d="M220 480 c0 -13 7 -20 20 -20 13 0 20 7 20 20 0 13 -7 20 -20 20 -13
0 -20 -7 -20 -20z"/>
<path d="M300 480 c0 -19 7 -20 160 -20 153 0 160 1 160 20 0 19 -7 20 -160
20 -153 0 -160 -1 -160 -20z"/>
<path d="M220 400 c0 -13 7 -20 20 -20 13 0 20 7 20 20 0 13 -7 20 -20 20 -13
0 -20 -7 -20 -20z"/>
<path d="M300 400 c0 -19 7 -20 113 -20 87 0 123 4 162 20 l50 19 -162 1
c-156 0 -163 -1 -163 -20z"/>
<path d="M617 365 c-55 -14 -119 -57 -161 -108 l-28 -36 21 -30 c32 -45 117
-103 172 -117 61 -16 128 -1 189 41 46 32 100 90 100 107 0 18 -94 105 -137
126 -53 27 -100 32 -156 17z m138 -44 c45 -21 115 -82 115 -101 0 -7 -17 -28
-37 -47 -108 -100 -228 -98 -328 6 l-39 41 39 40 c76 78 167 100 250 61z"/>
<path d="M635 311 c-64 -27 -81 -110 -32 -158 60 -61 162 -19 162 67 0 66 -72
116 -130 91z"/>
<path d="M220 320 c0 -13 7 -20 20 -20 13 0 20 7 20 20 0 13 -7 20 -20 20 -13
0 -20 -7 -20 -20z"/>
<path d="M300 320 c0 -18 7 -20 68 -20 56 0 72 4 87 20 18 20 17 20 -68 20
-80 0 -87 -2 -87 -20z"/>
</g>
</svg>
